#!OML:ASF H:\Dans Jumps\Project 1\Capture day 1\Session 1\subject.ASF
:FULLY-SPECIFIED
:DEGREES
541
root 0.45962 17.7356 7.06979 8.11244 -1.41512 -1.26497
lowerback -2.10033 -0.212752 -0.45366
upperback 2.8052 -0.320511 1.48644
thorax 4.078 -0.198164 1.76919
lowerneck -11.2801 0.588745 -1.73015
upperneck 38.2011 1.01539 0.858982
head 15.2199 0.28958 0.831514
rclavicle 1.3418e-015 -7.7526e-015
rhumerus -26.4947 -17.4823 -78.6094
rradius 21.8279
rwrist 38.5236
rhand -15.1769 -25.4481
rfingers 7.12502
rthumb 10.9941 -55.1402
lclavicle 1.3418e-015 -7.7526e-015
lhumerus -23.0508 4.06658 85.8955
lradius 15.6121
lwrist 0.733343
lhand -25.1685 -5.15366
lfingers 7.12502
lthumb 1.34883 24.8218
rfemur -13.3145 -1.21483 19.139
rtibia 19.6556
rfoot -12.707 -2.34226
rtoes 11.1981
lfemur -13.0098 6.64147 -18.0946
ltibia 17.4015
lfoot -9.73968 3.83245
ltoes 1.46441
542
root 0.459233 17.7356 7.0665 8.10327 -1.40949 -1.26
lowerback -2.0878 -0.213483 -0.459007
upperback 2.8039 -0.321311 1.48908
thorax 4.06963 -0.198716 1.7749
lowerneck -11.2928 0.590797 -1.72948
upperneck 38.1982 1.01723 0.862677
head 15.2214 0.291012 0.833328
rclavicle 5.2181e-015 1.07344e-014
rhumerus -26.4888 -17.4506 -78.6142
rradius 21.8369
rwrist 38.4967
rhand -15.1739 -25.462
rfingers 7.12502
rthumb 10.997 -55.154
lclavicle 5.2181e-015 1.07344e-014
lhumerus -23.048 4.07993 85.8859
lradius 15.6187
lwrist 0.710129
lhand -25.1455 -5.09662
lfingers 7.12502
lthumb 1.37104 24.8787
rfemur -13.3232 -1.21292 19.1355
rtibia 19.6699
rfoot -12.7068 -2.34952
rtoes 11.2037
lfemur -13.0112 6.63737 -18.0981
ltibia 17.3986
lfoot -9.7283 3.82786
ltoes 1.45683
543
root 0.458868 17.7356 7.06341 8.09168 -1.40574 -1.25495
lowerback -2.07597 -0.213453 -0.46329
upperback 2.80497 -0.32113 1.49074
thorax 4.06407 -0.198759 1.77905
lowerneck -11.3131 0.589673 -1.7338
upperneck 38.2014 1.01309 0.873627
head 15.2278 0.290092 0.838286
rclavicle 2.73329e-015 -1.27222e-014
rhumerus -26.4809 -17.425 -78.6203
rradius 21.8435
rwrist 38.4753
rhand -15.1731 -25.4727
rfingers 7.12502
rthumb 10.9978 -55.1646
lclavicle 2.73329e-015 -1.27222e-014
lhumerus -23.0397 4.06899 85.8827
lradius 15.6206
lwrist 0.718743
lhand -25.1502 -5.0737
lfingers 7.12502
lthumb 1.36653 24.9017
rfemur -13.3277 -1.21457 19.1318
rtibia 19.682
rfoot -12.7064 -2.35206
rtoes 11.2087
lfemur -13.0088 6.63315 -18.1016
ltibia 17.3961
lfoot -9.71806 3.8248
ltoes 1.45158
544
root 0.458423 17.7355 7.06031 8.07887 -1.40456 -1.25125
lowerback -2.06455 -0.21186 -0.465941
upperback 2.80749 -0.318925 1.49181
thorax 4.06015 -0.197752 1.78178
lowerneck -11.3319 0.584544 -1.7458
upperneck 38.2044 1.00164 0.893446
head 15.2336 0.286169 0.847207
rclavicle -2.48481e-016 -5.96354e-016
rhumerus -26.4714 -17.4071 -78.6266
rradius 21.8468
rwrist 38.4639
rhand -15.1741 -25.4837
rfingers 7.12502
rthumb 10.9969 -55.1756
lclavicle -2.48481e-016 -5.96354e-016
lhumerus -23.0238 4.03775 85.8841
lradius 15.6155
lwrist 0.749129
lhand -25.174 -5.07646
lfingers 7.12502
lthumb 1.3435 24.8991
rfemur -13.3305 -1.2155 19.1297
rtibia 19.6923
rfoot -12.7035 -2.35339
rtoes 11.2131
lfemur -13.005 6.63182 -18.1033
ltibia 17.3939
lfoot -9.70838 3.82146
ltoes 1.44786
545
root 0.457988 17.7355 7.0574 8.06536 -1.40408 -1.24915
lowerback -2.05544 -0.21011 -0.465866
upperback 2.81072 -0.316631 1.49277
thorax 4.05826 -0.196632 1.78288
lowerneck -11.3535 0.577818 -1.75965
upperneck 38.212 0.987538 0.915439
head 15.2425 0.281094 0.857037
rclavicle 1.19271e-015 -6.75868e-015
rhumerus -26.4599 -17.3942 -78.6336
rradius 21.8466
rwrist 38.4616
rhand -15.1753 -25.4973
rfingers 7.12502
rthumb 10.9957 -55.1893
lclavicle 1.19271e-015 -6.75868e-015
lhumerus -23.0063 3.99291 85.8892
lradius 15.6067
lwrist 0.799133
lhand -25.1947 -5.08581
lfingers 7.12502
lthumb 1.32348 24.8898
rfemur -13.3301 -1.21808 19.1291
rtibia 19.6993
rfoot -12.6997 -2.35291
rtoes 11.215
lfemur -13.0005 6.62998 -18.1032
ltibia 17.3933
lfoot -9.70035 3.81996
ltoes 1.4499
546
root 0.457522 17.7354 7.05463 8.05075 -1.40479 -1.2468
lowerback -2.0473 -0.207537 -0.465337
upperback 2.81265 -0.313237 1.49349
thorax 4.05553 -0.194934 1.78353
lowerneck -11.3669 0.570097 -1.77415
upperneck 38.2193 0.972374 0.936295
head 15.2493 0.275346 0.866274
rclavicle 7.85199e-015 -2.28602e-014
rhumerus -26.4519 -17.3842 -78.6389
rradius 21.8437
rwrist 38.4658
rhand -15.1812 -25.5054
rfingers 7.12502
rthumb 10.99 -55.1978
lclavicle 7.85199e-015 -2.28602e-014
lhumerus -22.985 3.93252 85.8983
lradius 15.5904
lwrist 0.865076
lhand -25.2265 -5.10781
lfingers 7.12502
lthumb 1.29277 24.868
rfemur -13.3265 -1.22006 19.1282
rtibia 19.7037
rfoot -12.6947 -2.35173
rtoes 11.2221
lfemur -12.9949 6.62739 -18.103
ltibia 17.3938
lfoot -9.69295 3.82141
ltoes 1.44754
547
root 0.45704 17.7353 7.052 8.03712 -1.40636 -1.24909
lowerback -2.04174 -0.203768 -0.458787
upperback 2.81318 -0.308508 1.49498
thorax 4.05273 -0.192395 1.78166
lowerneck -11.3711 0.562788 -1.78798
upperneck 38.2239 0.958608 0.95415
head 15.2526 0.269939 0.874238
rclavicle 2.98177e-015 9.74045e-015
rhumerus -26.4465 -17.3864 -78.6404
rradius 21.8377
rwrist 38.4841
rhand -15.1825 -25.5076
rfingers 7.12502
rthumb 10.9887 -55.2
lclavicle 2.98177e-015 9.74045e-015
lhumerus -22.9702 3.88383 85.9045
lradius 15.5773
lwrist 0.913402
lhand -25.2426 -5.13107
lfingers 7.12502
lthumb 1.27727 24.8448
rfemur -13.322 -1.22032 19.1323
rtibia 19.705
rfoot -12.6885 -2.35151
rtoes 11.2284
lfemur -12.9901 6.62173 -18.0973
ltibia 17.3957
lfoot -9.68631 3.82723
ltoes 1.45043
548
root 0.456581 17.7352 7.04947 8.02368 -1.40867 -1.24887
lowerback -2.0364 -0.200006 -0.453692
upperback 2.81194 -0.303685 1.4958
thorax 4.04821 -0.189821 1.77991
lowerneck -11.3669 0.556712 -1.80013
upperneck 38.2257 0.948164 0.966448
head 15.2525 0.265476 0.879975
rclavicle 1.68967e-015 5.56597e-015
rhumerus -26.4418 -17.396 -78.6397
rradius 21.8266
rwrist 38.5116
rhand -15.18 -25.506
rfingers 7.12502
rthumb 10.9911 -55.1983
lclavicle 1.68967e-015 5.56597e-015
lhumerus -22.9641 3.85811 85.9053
lradius 15.57
lwrist 0.933598
lhand -25.2058 -5.09139
lfingers 7.12502
lthumb 1.31283 24.8843
rfemur -13.3164 -1.22132 19.1334
rtibia 19.704
rfoot -12.682 -2.35057
rtoes 11.2286
lfemur -12.9854 6.61269 -18.0941
ltibia 17.3989
lfoot -9.68116 3.83671
ltoes 1.45679
549
root 0.456154 17.7351 7.04706 8.01129 -1.41103 -1.24874
lowerback -2.0324 -0.194834 -0.446091
upperback 2.80829 -0.297028 1.49581
thorax 4.04188 -0.186221 1.77601
lowerneck -11.3549 0.551201 -1.80928
upperneck 38.2263 0.939746 0.973217
head 15.25 0.261602 0.883091
rclavicle 5.96354e-016 -6.95746e-015
rhumerus -26.4425 -17.4118 -78.6369
rradius 21.8154
rwrist 38.5411
rhand -15.175 -25.4988
rfingers 7.12502
rthumb 10.996 -55.1908
lclavicle 5.96354e-016 -6.95746e-015
lhumerus -22.9689 3.85734 85.8998
lradius 15.5689
lwrist 0.915053
lhand -25.1536 -5.049
lfingers 7.12502
lthumb 1.36326 24.9264
rfemur -13.3105 -1.2233 19.1344
rtibia 19.7011
rfoot -12.6756 -2.34776
rtoes 11.2297
lfemur -12.9814 6.60356 -18.0911
ltibia 17.4034
lfoot -9.67606 3.84595
ltoes 1.47107
550
root 0.455636 17.735 7.04456 8.00088 -1.41416 -1.24999
lowerback -2.03016 -0.189375 -0.437838
upperback 2.8048 -0.290037 1.49628
thorax 4.03669 -0.182452 1.77224
lowerneck -11.3412 0.547208 -1.81547
upperneck 38.2248 0.935037 0.974026
head 15.2461 0.258951 0.883699
rclavicle -5.31749e-015 1.37161e-014
rhumerus -26.4394 -17.432 -78.6348
rradius 21.8018
rwrist 38.5716
rhand -15.167 -25.4919
rfingers 7.12502
rthumb 11.0037 -55.1835
lclavicle -5.31749e-015 1.37161e-014
lhumerus -22.9774 3.88491 85.8873
lradius 15.5751
lwrist 0.865851
lhand -25.0866 -4.9882
lfingers 7.12502
lthumb 1.42791 24.9868
rfemur -13.3073 -1.2214 19.1372
rtibia 19.6983
rfoot -12.6688 -2.34774
rtoes 11.2234
lfemur -12.9795 6.59552 -18.0863
ltibia 17.4073
lfoot -9.67005 3.85417
ltoes 1.48893
551
root 0.455157 17.735 7.04219 7.99089 -1.41617 -1.25073
lowerback -2.02971 -0.184901 -0.428785
upperback 2.80145 -0.284383 1.49628
thorax 4.03271 -0.179323 1.76746
lowerneck -11.3291 0.545205 -1.81984
upperneck 38.2232 0.934241 0.97123
head 15.2424 0.257725 0.883081
rclavicle -1.2424e-015 1.23246e-014
rhumerus -26.4369 -17.4473 -78.6363
rradius 21.7923
rwrist 38.5955
rhand -15.1577 -25.4844
rfingers 7.12502
rthumb 11.0126 -55.1755
lclavicle -1.2424e-015 1.23246e-014
lhumerus -22.989 3.92173 85.8724
lradius 15.5828
lwrist 0.80843
lhand -25.033 -4.94461
lfingers 7.12502
lthumb 1.47972 25.03
rfemur -13.3039 -1.2223 19.1394
rtibia 19.6957
rfoot -12.6627 -2.34648
rtoes 11.2155
lfemur -12.9773 6.58841 -18.0824
ltibia 17.4104
lfoot -9.66445 3.86038
ltoes 1.50443
552
root 0.454718 17.7349 7.03984 7.98141 -1.41566 -1.2507
lowerback -2.03203 -0.181921 -0.419525
upperback 2.7998 -0.280748 1.49588
thorax 4.03213 -0.177215 1.76204
lowerneck -11.3208 0.545726 -1.81728
upperneck 38.2203 0.939036 0.958919
head 15.2391 0.258583 0.878093
rclavicle -4.62174e-015 -7.15625e-015
rhumerus -26.4324 -17.4561 -78.6414
rradius 21.786
rwrist 38.6106
rhand -15.1492 -25.4773
rfingers 7.12502
rthumb 11.0209 -55.168
lclavicle -4.62174e-015 -7.15625e-015
lhumerus -22.9947 3.95002 85.8598
lradius 15.5865
lwrist 0.763551
lhand -25.018 -4.93893
lfingers 7.12502
lthumb 1.4942 25.0356
rfemur -13.3011 -1.22853 19.141
rtibia 19.6942
rfoot -12.6564 -2.34322
rtoes 11.2023
lfemur -12.9754 6.58471 -18.0798
ltibia 17.4114
lfoot -9.65799 3.8606
ltoes 1.51305
